<?xml version="1.0" encoding="UTF-8"?>
<svg id="Laag_1" data-name="Laag 1" xmlns="http://www.w3.org/2000/svg" viewBox="0 0 410.23 455.81">
  <path fill="#888888" d="M34.19,455.81c-9.12,0-17.09-3.42-23.93-10.26-6.84-6.84-10.26-14.81-10.26-23.93V68.37c0-9.12,3.42-17.09,10.26-23.93,6.84-6.84,14.81-10.26,23.93-10.26h37.03V0h37.03V34.19h193.72V0h37.03V34.19h37.03c9.12,0,17.09,3.42,23.93,10.26,6.84,6.84,10.26,14.81,10.26,23.93V421.63c0,9.12-3.42,17.09-10.26,23.93-6.84,6.84-14.81,10.26-23.93,10.26H34.19Zm0-34.19H376.04V176.63H34.19v245Zm0-279.18H376.04V68.37H34.19v74.07Zm0,0v0Zm170.93,131.05c-6.46,0-11.87-2.18-16.24-6.55-4.37-4.37-6.55-9.78-6.55-16.24s2.18-11.87,6.55-16.24c4.37-4.37,9.78-6.55,16.24-6.55s11.87,2.18,16.24,6.55c4.37,4.37,6.55,9.78,6.55,16.24s-2.18,11.87-6.55,16.24c-4.37,4.37-9.78,6.55-16.24,6.55Zm-91.16,0c-6.46,0-11.87-2.18-16.24-6.55-4.37-4.37-6.55-9.78-6.55-16.24s2.18-11.87,6.55-16.24c4.37-4.37,9.78-6.55,16.24-6.55s11.87,2.18,16.24,6.55c4.37,4.37,6.55,9.78,6.55,16.24s-2.18,11.87-6.55,16.24c-4.37,4.37-9.78,6.55-16.24,6.55Zm182.32,0c-6.46,0-11.87-2.18-16.24-6.55-4.37-4.37-6.55-9.78-6.55-16.24s2.18-11.87,6.55-16.24c4.37-4.37,9.78-6.55,16.24-6.55s11.87,2.18,16.24,6.55c4.37,4.37,6.55,9.78,6.55,16.24s-2.18,11.87-6.55,16.24c-4.37,4.37-9.78,6.55-16.24,6.55Zm-91.16,91.16c-6.46,0-11.87-2.18-16.24-6.55-4.37-4.37-6.55-9.78-6.55-16.24s2.18-11.87,6.55-16.24c4.37-4.37,9.78-6.55,16.24-6.55s11.87,2.18,16.24,6.55c4.37,4.37,6.55,9.78,6.55,16.24s-2.18,11.87-6.55,16.24c-4.37,4.37-9.78,6.55-16.24,6.55Zm-91.16,0c-6.46,0-11.87-2.18-16.24-6.55-4.37-4.37-6.55-9.78-6.55-16.24s2.18-11.87,6.55-16.24c4.37-4.37,9.78-6.55,16.24-6.55s11.87,2.18,16.24,6.55c4.37,4.37,6.55,9.78,6.55,16.24s-2.18,11.87-6.55,16.24c-4.37,4.37-9.78,6.55-16.24,6.55Zm182.32,0c-6.46,0-11.87-2.18-16.24-6.55-4.37-4.37-6.55-9.78-6.55-16.24s2.18-11.87,6.55-16.24c4.37-4.37,9.78-6.55,16.24-6.55s11.87,2.18,16.24,6.55c4.37,4.37,6.55,9.78,6.55,16.24s-2.18,11.87-6.55,16.24c-4.37,4.37-9.78,6.55-16.24,6.55Z"/>
</svg>