<svg xmlns="http://www.w3.org/2000/svg" width="3183.5" height="447.3" viewBox="0 0 3183.5 447.3">
  <g id="Tripadvisor_Logo_dark-bg_circle-white_horizontal-lockup_registered_RGB" transform="translate(-182.4 -221.7)">
    <path id="Path_1" data-name="Path 1" d="M3347.5,557.2a18.4,18.4,0,1,0,18.4,18.4A18.48,18.48,0,0,0,3347.5,557.2Zm0,33.9a15.5,15.5,0,1,1,15.5-15.5A15.513,15.513,0,0,1,3347.5,591.1Zm6-18.6c0-3.4-2.4-5.3-5.9-5.3h-5.9V584h2.9v-6.1h3.1l3,6.1h3.1l-3.3-6.7A5.13,5.13,0,0,0,3353.5,572.5Zm-6,2.8h-2.8v-5.6h2.8c1.9,0,3.1,1,3.1,2.8S3349.4,575.3,3347.5,575.3Zm-2218-204.4V326.4h-68.3V591.3h68.3V432.5c0-28.8,18.5-42.9,47.2-42.9H1214V326.4h-31.9C1157.2,326.4,1135.5,339.5,1129.5,370.9ZM1278,221.7c-23.3,0-41.3,18.5-41.3,41.8a41.3,41.3,0,0,0,82.6,0C1319.3,240.1,1301.4,221.7,1278,221.7Zm-34,369.6h68.1V326.4H1244Zm392.5-132.4a136.91,136.91,0,0,1-136.9,136.9,131.836,131.836,0,0,1-80.4-26.9V669h-68.1V326.4h68.1v22.4a131.836,131.836,0,0,1,80.4-26.9A137,137,0,0,1,1636.5,458.9Zm-68.5,0a74.4,74.4,0,1,0-74.4,74.4A74.387,74.387,0,0,0,1568,458.9Zm1252.2-23.3-39.7-10.9c-26.1-6.8-36.3-14.8-36.3-28.6,0-13.5,14.3-22.9,34.8-22.9,19.5,0,34.8,12.8,34.8,29.1v1.5h62.8v-1.5c0-48.1-39.2-80.4-97.6-80.4-57.8,0-99.8,32.3-99.8,76.7,0,34.6,22.9,60.7,62.9,71.5l38,10.4c28.9,8,39.7,16.9,39.7,32.8,0,16.8-15.5,28.1-38.7,28.1-24.1,0-40.3-15.2-40.3-37.9V502h-66.6v1.5c0,54.3,43.7,92.3,106.4,92.3,60.4,0,104.2-37.1,104.2-88.1C2884.7,482.6,2873.5,449.9,2820.2,435.6ZM1878.1,326.4h68.1V591.3h-68.1V568.9a131.836,131.836,0,0,1-80.4,26.9,136.9,136.9,0,1,1,0-273.8,131.836,131.836,0,0,1,80.4,26.9Zm0,132.5h0a74.4,74.4,0,1,0-74.4,74.4A74.387,74.387,0,0,0,1878.1,458.9Zm314-226.7h68.1V591.3h-68.1V568.9a131.835,131.835,0,0,1-80.4,26.9,136.9,136.9,0,1,1,0-273.8,131.836,131.836,0,0,1,80.4,26.9Zm0,226.7a74.4,74.4,0,1,0-74.4,74.4A74.387,74.387,0,0,0,2192.1,458.9Zm384.3,132.4h68.1V326.4h-68.1Zm34-369.6c-23.3,0-41.3,18.5-41.3,41.8a41.3,41.3,0,0,0,82.6,0C2651.7,240.1,2633.8,221.7,2610.4,221.7Zm568.7,237.2A136.9,136.9,0,1,1,3042.2,322,136.91,136.91,0,0,1,3179.1,458.9Zm-62.5,0a74.4,74.4,0,1,0-74.4,74.4A74.387,74.387,0,0,0,3116.6,458.9Zm-2022-226.7H833.4V293h96.7V591.4H998V292.9h96.7V232.2ZM2415.8,518.8l-60.6-192.3h-71.5l90.9,264.9h81.9l91.4-264.9h-71.5Zm863.1-147.9V326.4h-68.3V591.3h68.3V432.5c0-28.8,18.5-42.9,47.2-42.9h37.3V326.4h-31.9C3306.6,326.4,3284.9,339.5,3278.9,370.9Z" fill="#fff"/>
    <path id="Path_2" data-name="Path 2" d="M654.6,372.1l42-45.7H603.4a291.375,291.375,0,0,0-327.6,0H182.4l42,45.7A128.527,128.527,0,1,0,398.3,561.4l41.2,44.8,41.2-44.8A128.527,128.527,0,1,0,654.6,372.1ZM311,554a86.9,86.9,0,1,1,87-87A86.892,86.892,0,0,1,311,554Zm128.5-89.5c0-57.2-41.6-106.3-96.5-127.3a250.9,250.9,0,0,1,193,0C481.2,358.2,439.5,407.3,439.5,464.5ZM568,554a86.9,86.9,0,1,1,86.9-86.9A86.892,86.892,0,0,1,568,554Zm0-132.5a45.6,45.6,0,1,0,45.6,45.6A45.58,45.58,0,0,0,568,421.5ZM356.6,467A45.6,45.6,0,1,1,311,421.4,45.58,45.58,0,0,1,356.6,467Z"/>
  </g>
</svg>
